<svg id="Layer_3" height="512" viewBox="0 0 64 64" width="512" xmlns="http://www.w3.org/2000/svg" data-name="Layer 3"><path d="m55 5h-46a1 1 0 0 0 -1 1v44a1 1 0 0 0 1 1h46a1 1 0 0 0 1-1v-44a1 1 0 0 0 -1-1zm-22 2v42h-2v-42zm-23 0h19v42h-19zm44 42h-19v-42h19z"/><path d="m4 2v52a1 1 0 0 0 1 1h54a1 1 0 0 0 1-1v-52a1 1 0 0 0 -1-1h-54a1 1 0 0 0 -1 1zm2 1h52v50h-52z"/><path d="m35.308 20.5h18.385v2h-18.385z" transform="matrix(.707 -.707 .707 .707 -2.169 37.763)"/><path d="m35.654 34h17.692v2h-17.692z" transform="matrix(.734 -.679 .679 .734 -11.936 39.5)"/><path d="m10.308 20.5h18.385v2h-18.385z" transform="matrix(.707 -.707 .707 .707 -9.491 20.086)"/><path d="m10.654 34h17.692v2h-17.692z" transform="matrix(.734 -.679 .679 .734 -18.576 22.531)"/><path d="m62 57h-60a1 1 0 0 0 -1 1v4a1 1 0 0 0 1 1h60a1 1 0 0 0 1-1v-4a1 1 0 0 0 -1-1zm-1 4h-58v-2h58z"/></svg>