<?xml version="1.0"?>
<svg xmlns="http://www.w3.org/2000/svg" id="Layer_3" data-name="Layer 3" viewBox="0 0 64 64" width="512" height="512"><path d="M62,9a1,1,0,0,0,1-1V2a1,1,0,0,0-1-1H2A1,1,0,0,0,1,2V8A1,1,0,0,0,2,9H3V61H1v2H63V61H61V9ZM3,3H61V7H3ZM55,60.69,35,55.236V40h2V53.15a1,1,0,0,0,.735.964l14,3.85A1,1,0,0,0,53,57V13a1,1,0,0,0-1.265-.964l-14,3.85A1,1,0,0,0,37,16.85V30H35V14.764L55,9.31ZM35,32h3v6H35Zm4,8a1,1,0,0,0,1-1V31a1,1,0,0,0-1-1V17.611l12-3.3V55.688l-12-3.3ZM33.737,13.035A1,1,0,0,0,33,14V56a1,1,0,0,0,.737.965L48.533,61H15.467l14.8-4.035A1,1,0,0,0,31,56V14a1,1,0,0,0-.737-.965L15.467,9H48.533ZM29,38H26V32h3Zm-4-8a1,1,0,0,0-1,1v8a1,1,0,0,0,1,1V52.389l-12,3.3V14.312l12,3.3Zm4,0H27V16.85a1,1,0,0,0-.735-.964l-14-3.85a.988.988,0,0,0-.871.169A1,1,0,0,0,11,13V57a1,1,0,0,0,1.265.964l14-3.85A1,1,0,0,0,27,53.15V40h2V55.236L9,60.691V9.309l20,5.455ZM5,9H7V61H5ZM59,61H57V9h2Z"/></svg>
