<?xml version="1.0" encoding="utf-8"?>
<!-- Generator: Adobe Illustrator 28.3.0, SVG Export Plug-In . SVG Version: 6.00 Build 0)  -->
<svg version="1.1" id="Capa_1" xmlns="http://www.w3.org/2000/svg" xmlns:xlink="http://www.w3.org/1999/xlink" x="0px" y="0px"
	 viewBox="0 0 469 469" style="enable-background:new 0 0 469 469;" xml:space="preserve">
<g>
	<path d="M206.6,356H29.4c-12.2,0-22.1-9.9-22.1-22.1V135.1c0-12.2,9.9-22.1,22.1-22.1h177.2c12.2,0,22.1,9.9,22.1,22.1v198.8
		C228.7,346.1,218.8,356,206.6,356z M29.4,124.1c-6.1,0-11,4.9-11,11v198.8c0,6.1,4.9,11,11,11h177.2c6.1,0,11-4.9,11-11V135.1
		c0-6.1-4.9-11-11-11H29.4z"/>
	<path d="M137,180.4l26.4-26.4c2.2-2.2,5.7-2.2,7.8,0l0,0c2.2,2.2,2.2,5.7,0,7.8l-26.4,26.4c-2.2,2.2-5.7,2.2-7.8,0l0,0
		C134.9,186,134.9,182.5,137,180.4z"/>
	<path d="M131.5,230l48.5-48.5c2.2-2.2,5.7-2.2,7.8,0l0,0c2.2,2.2,2.2,5.7,0,7.8l-48.5,48.5c-2.2,2.2-5.7,2.2-7.8,0l0,0
		C129.4,235.6,129.4,232.2,131.5,230z"/>
</g>
<g>
	<path d="M439.2,356H264.6c-12.2,0-22.1-9.9-22.1-22.1V135.1c0-12.2,9.9-22.1,22.1-22.1h174.6c12.2,0,22.1,9.9,22.1,22.1v198.8
		C461.3,346.1,451.4,356,439.2,356z M264.6,124.1c-6.1,0-11,4.9-11,11v198.8c0,6.1,4.9,11,11,11h174.6c6.1,0,11-4.9,11-11V135.1
		c0-6.1-4.9-11-11-11H264.6z"/>
	<path d="M369.6,180.4L396,154c2.2-2.2,5.7-2.2,7.8,0l0,0c2.2,2.2,2.2,5.7,0,7.8l-26.4,26.4c-2.2,2.2-5.7,2.2-7.8,0l0,0
		C367.5,186,367.5,182.5,369.6,180.4z"/>
	<path d="M364.1,230l48.5-48.5c2.2-2.2,5.7-2.2,7.8,0l0,0c2.2,2.2,2.2,5.7,0,7.8l-48.5,48.5c-2.2,2.2-5.7,2.2-7.8,0v0
		C362,235.6,362,232.2,364.1,230z"/>
</g>
</svg>
