<?xml version="1.0" encoding="utf-8"?>
<!-- Generator: Adobe Illustrator 28.3.0, SVG Export Plug-In . SVG Version: 6.00 Build 0)  -->
<svg version="1.1" id="Capa_1" xmlns="http://www.w3.org/2000/svg" xmlns:xlink="http://www.w3.org/1999/xlink" x="0px" y="0px"
	 viewBox="0 0 480 480" style="enable-background:new 0 0 480 480;" xml:space="preserve">
<g>
	<g>
		<path d="M270,0c-92.6,0-168,107.7-168,240s75.4,240,168,240s168-107.7,168-240S362.6,0,270,0z M270,464c-83.8,0-152-100.5-152-224
			S186.2,16,270,16s152,100.5,152,224S353.8,464,270,464z"/>
	</g>
</g>
<g>
	<g>
		<path d="M270,32c-73.7,0-136,95.3-136,208s62.3,208,136,208s136-95.3,136-208S343.7,32,270,32z M270,432c-65,0-120-87.9-120-192
			S205,48,270,48s120,87.9,120,192S335,432,270,432z"/>
	</g>
</g>
<g>
	<g>
		<path d="M305.2,266.5c-4-2.3-9.2-0.9-11.5,3.1l-58.9,102.1c-0.7,1.3-1.1,2.7-1.1,4.2c0,4.6,3.8,8.4,8.4,8.4c3,0,5.8-1.6,7.3-4.2
			L308.3,278C310.6,274,309.2,268.8,305.2,266.5z"/>
	</g>
</g>
<g>
	<g>
		<path d="M342.8,268.8c-4-2.3-9.2-0.9-11.5,3.1l-58.9,102.1c-0.7,1.3-1.1,2.7-1.1,4.2c0,4.6,3.8,8.4,8.4,8.4c3,0,5.8-1.6,7.3-4.2
			l58.9-102.1C348.2,276.3,346.8,271.1,342.8,268.8z"/>
	</g>
</g>
<path d="M49.4,128.8l-13.6-28.7L8.6,85.8l27.2-14.3l13.6-28.7L63,71.5l27.2,14.3L63,100.1L49.4,128.8z M27.4,85.8L42,93.5l7.3,15.5
	l7.3-15.5l14.7-7.8L56.7,78l-7.3-15.5L42,78L27.4,85.8z M82.9,127.8l6.3,13.2l6.3-13.2l12.6-6.6l-12.6-6.6l-6.3-13.2l-6.3,13.2
	l-12.6,6.6L82.9,127.8z M88.5,55.6l4.9,10.3l4.9-10.3l9.8-5.2l-9.8-5.2L93.3,35l-4.9,10.3l-9.8,5.2L88.5,55.6z"/>
</svg>
