<?xml version="1.0" encoding="utf-8"?>
<!-- Generator: Adobe Illustrator 28.3.0, SVG Export Plug-In . SVG Version: 6.00 Build 0)  -->
<svg version="1.1" id="Capa_1" xmlns="http://www.w3.org/2000/svg" xmlns:xlink="http://www.w3.org/1999/xlink" x="0px" y="0px"
	 viewBox="0 0 512 512" style="enable-background:new 0 0 512 512;" xml:space="preserve">
<g>
	<path d="M487.7,132.1c5.7-11.1,8.9-23.7,8.9-37c0-37.4-25.3-69.8-61.6-78.8c-4-1-8.1,1.5-9.1,5.5c-1,4,1.5,8.1,5.5,9.1
		c29.6,7.3,50.2,33.8,50.2,64.3c0,9-1.8,17.7-5.1,25.5c-1.1-0.9-2.1-1.7-3.2-2.6c-31.9-23.7-76.3-20.2-122.5-8.8
		c-1-4.6-1.5-9.3-1.5-14.2c0-30.8,20.9-57.3,50.8-64.4c4-1,6.5-5,5.6-9c-1-4-5-6.5-9-5.6c-36.7,8.7-62.4,41.2-62.4,79
		c0,6.2,0.7,12.2,2,18c-5.6,1.5-11.2,3.2-16.8,4.8c-27.1,8.1-52.4-1.8-79.3-12.3c-38.7-15.1-82.5-32.3-139.2,1.7
		c-20.5,12.3-34.8,36.3-40.2,67.6c-5.1,29.2-2.6,69.1,13.4,111.7c-10.9,7.2-19.6,13.9-25.9,20.1c-52.1,50.9-63,110.9-27.8,152.8
		c17.1,20.3,41.7,32.7,71.3,35.8c38.5,3.8,86.1-8.7,119-34.6c28.6,22.6,62.9,33.4,98.3,28.5c40.2-4.7,90.9-39.6,132.3-90.9
		c44.9-55.7,70.7-120.3,70.6-177.2C512,182.2,503.8,152.3,487.7,132.1L487.7,132.1z M398.1,116.1c31.3-2.2,52.8,2.1,70.8,17.9
		c-12,16.6-31.6,27.4-53.6,27.4c-26.4,0-49.2-15.5-59.8-37.9C369.7,120,384,117.3,398.1,116.1z M181,462.3
		c-30.2,14.7-60.5,21-87.7,18.2c-25.7-2.7-46.9-13.3-61.4-30.6C17.3,432.5,12,411,16.6,387.8c4.7-23.7,19.3-48,42.1-70.3
		c5.1-5,12.3-10.6,21.2-16.6c9.8,22.1,23.3,44.7,41.3,66.7c31.8,38.8,56.3,65.3,77.7,83.6C193.6,455.3,187.7,459.1,181,462.3
		L181,462.3z M429.7,389c-38.5,47.7-86.5,81.2-122.4,85.4c-31.9,4.1-59.1-4.3-85.5-24.1c12.8-13.8,21.6-29.4,29.7-43.9
		c14.5-25.7,27-47.9,56.5-58.1c33.8-11.7,57.7-33.9,65.7-60.8c5.8-19.6,2.2-39.1-10.1-54.9c-18.1-23.2-56.9-29.7-112.3-18.6
		c-42.7,8.5-95.2,27.7-140.6,51.4c-3.7,1.9-5.1,6.4-3.2,10.1c1.9,3.7,6.4,5.1,10.1,3.2c44.2-23,95.2-41.7,136.6-50
		c62.4-12.5,87.5,0.3,97.5,13.1c9.2,11.9,11.9,26.6,7.5,41.4c-6.6,22.2-27,40.8-56.2,50.9c-34.9,12.1-50,39-64.6,64.9
		c-8.1,14.5-16.5,29.2-28.4,41.9c-20.9-17.7-45.2-43.9-77.2-82.9c-46.6-55.8-66.6-127.6-57.3-180.5c4.7-26.9,16.5-47.2,33.2-57.3
		c50.3-30.2,88.8-15.2,126-0.6c28.1,11,57.1,22.3,89.1,12.7c5.6-1.7,11.3-3.4,17.1-5c12.5,28.8,41.2,49,74.5,49
		c25.7,0,48.7-12,63.6-30.8c11.9,17.5,18,42.8,18,75.7C497.1,274.8,472.5,335.9,429.7,389L429.7,389z"/>
</g>
<g>
	<g>
		<path d="M431.2,250.9c-4-2.3-9.2-0.9-11.5,3.1l-58.9,102.1c-0.7,1.3-1.1,2.7-1.1,4.2c0,4.6,3.8,8.4,8.4,8.4c3,0,5.8-1.6,7.3-4.2
			l58.9-102.1C436.6,258.5,435.2,253.2,431.2,250.9z"/>
	</g>
</g>
<g>
	<g>
		<path d="M468.8,253.2c-4-2.3-9.2-0.9-11.5,3.1l-58.9,102.1c-0.7,1.3-1.1,2.7-1.1,4.2c0,4.6,3.8,8.4,8.4,8.4c3,0,5.8-1.6,7.3-4.2
			l58.9-102.1C474.2,260.8,472.8,255.6,468.8,253.2z"/>
	</g>
</g>
</svg>
