<svg id="Layer_3" height="512" viewBox="0 0 64 64" width="512" xmlns="http://www.w3.org/2000/svg" data-name="Layer 3"><path d="m14 1a1 1 0 0 0 -1 1v60a1 1 0 0 0 1 1h36a1 1 0 0 0 1-1v-60a1 1 0 0 0 -1-1zm1 60v-58h34v4h-5a1 1 0 0 0 -1 1v4a1 1 0 0 0 1 1h5v38h-5a1 1 0 0 0 -1 1v4a1 1 0 0 0 1 1h5v4zm34-52v2h-4v-2zm0 44v2h-4v-2z"/><path d="m27.654 10.75h9.192v2h-9.192z" transform="matrix(.707 -.707 .707 .707 1.137 26.246)"/><path d="m27.654 16.75h9.192v2h-9.192z" transform="matrix(.707 -.707 .707 .707 -3.105 28.003)"/><path d="m17 23h2v22h-2v2h6v-2h-2v-22h2v-2h-6z"/><path d="m27.654 45.25h9.192v2h-9.192z" transform="matrix(.707 -.707 .707 .707 -23.258 36.351)"/><path d="m27.654 51.25h9.192v2h-9.192z" transform="matrix(.707 -.707 .707 .707 -27.501 38.108)"/></svg>