<svg id="Layer_1" viewBox="0 0 64 64" xmlns="http://www.w3.org/2000/svg" data-name="Layer 1"><path d="m23.964 26.246c-.391-.391-1.023-.391-1.414 0l-9.072 9.072c-.391.391-.391 1.023 0 1.414.195.195.451.293.707.293s.512-.098.707-.293l9.072-9.072c.391-.391.391-1.023 0-1.414z"/><path d="m23.571 31.926-4.413 4.414c-.391.391-.391 1.023 0 1.414.195.195.451.293.707.293s.512-.098.707-.293l4.413-4.414c.391-.391.391-1.023 0-1.414s-1.023-.391-1.414 0z"/><path d="m3.762 51.311c-.553 0-1 .448-1 1v7.399c0 .552.447 1 1 1h56.476c.553 0 1-.448 1-1v-7.399c0-.552-.447-1-1-1h-2.171v-38.622h2.171c.553 0 1-.448 1-1v-7.398c0-.552-.447-1-1-1h-56.476c-.553 0-1 .448-1 1v7.399c0 .552.447 1 1 1h2.171v38.621zm55.477 7.399h-54.477v-5.399h54.476v5.399zm-3.171-7.399h-23.067v-38.622h23.067zm-51.306-46.02h54.476v5.399h-54.476zm3.171 7.399h23.067v38.621h-23.067v-38.622z"/></svg>